<?xml version="1.0" encoding="iso-8859-1"?>
<!-- Generator: Adobe Illustrator 19.0.0, SVG Export Plug-In . SVG Version: 6.00 Build 0)  -->
<svg version="1.1" id="Capa_1" xmlns="http://www.w3.org/2000/svg" xmlns:xlink="http://www.w3.org/1999/xlink" x="0px" y="0px"
	 viewBox="0 0 512 512" style="enable-background:new 0 0 512 512;" xml:space="preserve">
<path style="fill:#F4A14E;" d="M512,256c0,11.086-0.7,22.006-2.069,32.716c-2.32,18.181-6.551,35.767-12.476,52.558
	c-6.06,17.157-13.897,33.468-23.28,48.724c-1.912,3.103-3.877,6.154-5.904,9.165c-3.406,5.036-6.98,9.937-10.721,14.702
	c-6.687,8.526-13.908,16.624-21.608,24.221c-6.008,5.945-12.298,11.577-18.871,16.906C373.081,490.642,317.043,512,256,512
	c-8.819,0-17.533-0.449-26.122-1.317c-15.726-1.588-31.033-4.608-45.777-8.923c-12.131-3.532-23.886-7.952-35.192-13.166
	c-7.502-3.459-14.806-7.272-21.891-11.421C70.437,444.103,27.679,389.945,9.55,325.475c-2.456-8.673-4.451-17.544-5.966-26.572
	C1.223,284.954,0,270.618,0,256c0-12.601,0.909-24.994,2.675-37.104c1.306-9.049,3.093-17.941,5.339-26.655
	c7.252-28.306,19.216-54.711,35.015-78.346c4.086-6.113,8.432-12.048,13.019-17.763c27.69-34.597,64.178-61.848,106.057-78.367
	C191.175,6.301,222.856,0,256,0c42.715,0,82.996,10.459,118.397,28.965C456.182,71.701,512,157.33,512,256z"/>
<path style="fill:#F9EED7;" d="M339.38,8.633c22.659,0,32.271,24.718,32.271,47.377c0,26.091-11.673,48.75-32.271,48.75h-94.754
	v372.836c0,21.972-26.779,32.958-53.556,32.958c-26.779,0-53.556-10.986-53.556-32.958V104.76H42.758
	c-20.598,0-32.272-22.659-32.272-48.75c0-22.659,9.613-47.377,32.272-47.377H339.38V8.633z"/>
<g>
	<path style="fill:#5C5E70;" d="M234.13,368.435v109.407c0,15.809-22.465,24.085-44.669,24.085c-1.787,0-3.584-0.052-5.36-0.167
		c14.743,4.315,30.051,7.335,45.777,8.923c12.967-6.813,22.016-17.638,22.016-32.841V368.435H234.13z"/>
	<path style="fill:#5C5E70;" d="M374.397,28.965c-1.212-3.354-2.654-6.489-4.315-9.352C362.736,6.969,351.263,0,337.774,0H41.148
		C27.658,0,16.185,6.969,8.84,19.613C3.135,29.424,0,42.444,0,56.257c0,33.938,16.917,57.637,41.148,57.637h85.87v363.28
		c7.084,4.148,14.388,7.962,21.891,11.421c-2.623-3.072-4.127-6.656-4.127-10.752v-372.83c0-4.911-3.971-8.882-8.882-8.882H41.148
		c-11.619,0-23.385-13.699-23.385-39.873c0-14.294,4.921-38.494,23.385-38.494h296.626c18.463,0,23.385,24.2,23.385,38.494
		c0,26.175-11.766,39.873-23.385,39.873h-94.762c-4.901,0-8.882,3.971-8.882,8.882v117.137h17.763V113.894h85.88
		c24.231,0,41.148-23.698,41.148-57.637C378.922,46.477,377.354,37.094,374.397,28.965z"/>
	<circle style="fill:#5C5E70;" cx="289.061" cy="264.746" r="26.034"/>
</g>
<path style="fill:#FFD15C;" d="M403.302,339.788l-39.613,39.613l-41.872-41.867c-17.334-17.334-43.419-22.735-66.074-13.372
	c-0.14,0.056-0.286,0.118-0.427,0.174c1.731-29.884-7.52-64.444-20.504-95.053l3.799-3.794l29.547,29.547
	c-1.737,5.614-0.388,11.978,4.058,16.423c6.638,6.637,17.553,6.384,23.859-0.765c5.317-6.02,5.424-15.226,0.225-21.352
	c-4.451-5.255-11.336-6.946-17.362-5.081l-29.553-29.553l3.799-3.799c30.609,12.989,65.164,22.241,95.053,20.509
	c-0.062,0.14-0.118,0.281-0.174,0.421c-9.363,22.657-3.969,48.74,13.365,66.08L403.302,339.788z"/>
<path style="fill:#34ABE0;" d="M474.175,389.998c-1.912,3.103-3.877,6.154-5.904,9.165c-3.406,5.036-6.98,9.937-10.721,14.702
	c-6.687,8.526-13.908,16.624-21.608,24.221c-6.008,5.945-12.298,11.577-18.871,16.906c-4.127-3.887-8.255-7.899-12.382-12.027
	c-35.15-35.15-62.359-70.855-76.685-98.523c-0.251-0.491-0.502-0.972-0.742-1.463c-0.888-1.755-1.735-3.49-2.508-5.183
	l10.574-10.574l25.433-25.422l0.073-0.073c0.031,0.01,0.063,0.021,0.094,0.031h0.01c2.121,0.993,4.294,2.069,6.531,3.218
	c0.711,0.376,1.421,0.742,2.142,1.128c27.366,14.587,62.14,41.305,96.392,75.557C468.783,384.439,471.51,387.218,474.175,389.998z"
	/>
<path style="fill:#279FC9;" d="M435.942,438.084c-6.008,5.945-12.298,11.577-18.871,16.906c-4.127-3.887-8.255-7.899-12.382-12.027
	c-35.15-35.15-62.359-70.855-76.685-98.523c-0.251-0.491-0.502-0.972-0.742-1.463c-0.888-1.755-1.735-3.49-2.508-5.183
	l10.574-10.574c1.348,1.818,2.759,3.699,4.253,5.642c8.464,11.024,19.393,24.095,32.204,38.442
	c14.775,16.572,32.047,34.847,50.887,53.687C427.133,429.453,431.564,433.821,435.942,438.084z"/>
<path style="fill:#C69A6A;" d="M370.268,302.173l-44.197,44.197c-4.487,4.487-11.762,4.487-16.249,0l0,0
	c-4.487-4.487-4.487-11.762,0-16.249l44.197-44.197c4.487-4.487,11.762-4.487,16.249,0l0,0
	C374.756,290.411,374.756,297.686,370.268,302.173z"/>
<path style="fill:#B58657;" d="M322.383,333.809c-4.487-4.487-4.487-11.762,0-16.249l-12.561,12.561
	c-4.487,4.487-4.487,11.762,0,16.249c4.487,4.487,11.762,4.487,16.249,0l12.561-12.561
	C334.146,338.296,326.87,338.296,322.383,333.809z"/>
<g>
</g>
<g>
</g>
<g>
</g>
<g>
</g>
<g>
</g>
<g>
</g>
<g>
</g>
<g>
</g>
<g>
</g>
<g>
</g>
<g>
</g>
<g>
</g>
<g>
</g>
<g>
</g>
<g>
</g>
</svg>
