<svg id="Capa_1" enable-background="new 0 0 192 192" height="192" viewBox="0 0 192 192" width="192" xmlns="http://www.w3.org/2000/svg"><g><g><path d="m118.062 110.962v69.108c0 2.664 2.159 4.823 4.823 4.823h24.275c2.664 0 4.823-2.159 4.823-4.823v-18.946c0-2.664 2.159-4.823 4.823-4.823h66.541c2.664 0 4.823 2.159 4.823 4.823v204.402c0 2.664-2.159 4.823-4.823 4.823h-16.093c-2.664 0-4.823 2.159-4.823 4.823v25.866c0 2.664 2.159 4.823 4.823 4.823h97.489c2.664 0 4.823-2.159 4.823-4.823v-25.866c0-2.664-2.159-4.823-4.823-4.823h-16.093c-2.664 0-4.823-2.159-4.823-4.823v-204.401c0-2.664 2.159-4.823 4.823-4.823h66.541c2.664 0 4.823 2.159 4.823 4.823v18.946c0 2.664 2.159 4.823 4.823 4.823h24.275c2.664 0 4.823-2.159 4.823-4.823v-69.108c0-2.664-2.159-4.823-4.823-4.823h-266.228c-2.663-.001-4.822 2.158-4.822 4.822z" fill="#fd4755"/><path d="m393.935 110.967v69.107c0 2.664-2.16 4.824-4.824 4.824h-24.273c-2.664 0-4.824-2.16-4.824-4.824v-18.946c0-2.664-2.16-4.824-4.824-4.824h-66.536c-2.664 0-4.824 2.16-4.824 4.824v204.4c0 2.664 2.16 4.824 4.824 4.824h16.086c2.664 0 4.824 2.16 4.824 4.824v25.857c0 2.664-2.16 4.824-4.824 4.824h-41.48v-248.792c0-12.332 9.997-22.34 22.34-22.34h82.015c3.178 0 5.749-2.571 5.749-5.75v-18.01c0-2.664-2.16-4.824-4.824-4.824h20.571c2.664.002 4.824 2.162 4.824 4.826z" fill="#fb2b3a"/></g><g><g><path d="m20.671 479.971c-4.143 0-7.5-3.358-7.5-7.5v-432.942c0-4.142 3.357-7.5 7.5-7.5s7.5 3.358 7.5 7.5v432.942c0 4.142-3.358 7.5-7.5 7.5z" fill="#5a5a5a"/></g><g><path d="m491.898 479.971c-4.143 0-7.5-3.358-7.5-7.5v-432.942c0-4.142 3.357-7.5 7.5-7.5s7.5 3.358 7.5 7.5v432.942c0 4.142-3.357 7.5-7.5 7.5z" fill="#5a5a5a"/></g><g><path d="m256.669 499.399c-4.132 0-7.487-3.344-7.499-7.479-.012-4.143 3.337-7.509 7.479-7.521 3.217-.009 6.475-.086 9.681-.229 4.146-.175 7.642 3.022 7.825 7.159.185 4.138-3.021 7.642-7.159 7.826-3.413.152-6.88.233-10.306.243-.006.001-.013.001-.021.001zm-29.903-1.792c-.308 0-.617-.019-.93-.058-3.396-.419-6.83-.918-10.207-1.482-4.086-.682-6.845-4.547-6.162-8.633.683-4.085 4.551-6.845 8.633-6.162 3.168.529 6.39.997 9.576 1.391 4.11.508 7.031 4.252 6.523 8.363-.47 3.798-3.702 6.581-7.433 6.581zm69.685-1.662c-3.582 0-6.751-2.575-7.382-6.224-.705-4.082 2.031-7.962 6.113-8.668 3.168-.547 6.363-1.17 9.498-1.85 4.053-.881 8.042 1.691 8.92 5.738.879 4.048-1.69 8.042-5.738 8.92-3.342.725-6.748 1.389-10.125 1.973-.431.075-.862.111-1.286.111zm-108.769-6.588c-.719 0-1.448-.104-2.172-.322-3.289-.994-6.599-2.071-9.838-3.204-3.91-1.367-5.972-5.645-4.604-9.555s5.645-5.972 9.556-4.604c3.036 1.062 6.141 2.072 9.225 3.004 3.965 1.198 6.208 5.383 5.011 9.349-.981 3.241-3.958 5.332-7.178 5.332zm147.413-3.542c-3.084 0-5.974-1.916-7.066-4.988-1.388-3.903.649-8.192 4.553-9.58 3.02-1.075 6.063-2.231 9.044-3.438 3.842-1.553 8.213.299 9.766 4.139 1.554 3.84-.299 8.212-4.139 9.766-3.179 1.287-6.424 2.52-9.644 3.665-.831.296-1.68.436-2.514.436zm-184.574-11.247c-1.129 0-2.273-.255-3.352-.795-3.061-1.532-6.135-3.154-9.138-4.821-3.622-2.011-4.928-6.576-2.918-10.198 2.01-3.621 6.577-4.928 10.197-2.917 2.818 1.564 5.702 3.086 8.573 4.523 3.704 1.854 5.203 6.36 3.349 10.064-1.313 2.626-3.961 4.144-6.711 4.144zm220.914-5.288c-2.622 0-5.167-1.377-6.544-3.825-2.03-3.61-.75-8.183 2.86-10.213 2.804-1.577 5.604-3.23 8.324-4.914 3.521-2.18 8.144-1.094 10.325 2.428 2.181 3.521 1.093 8.144-2.429 10.325-2.898 1.794-5.882 3.556-8.867 5.235-1.163.653-2.424.964-3.669.964zm-255.004-15.572c-1.542 0-3.098-.474-4.436-1.458-2.751-2.021-5.505-4.136-8.185-6.285-3.231-2.591-3.75-7.312-1.158-10.543 2.589-3.231 7.31-3.75 10.543-1.159 2.517 2.018 5.102 4.003 7.683 5.901 3.338 2.453 4.055 7.147 1.602 10.485-1.47 2-3.745 3.059-6.049 3.059zm288.022-6.863c-2.184 0-4.349-.948-5.831-2.777-2.608-3.217-2.114-7.94 1.103-10.549 2.491-2.02 4.977-4.123 7.387-6.251 3.104-2.742 7.844-2.447 10.586.658 2.741 3.105 2.447 7.845-.658 10.586-2.566 2.267-5.214 4.507-7.867 6.658-1.391 1.127-3.061 1.675-4.72 1.675zm-318.099-19.425c-1.963 0-3.922-.765-5.394-2.288-2.376-2.458-4.734-5.003-7.008-7.563-2.751-3.097-2.47-7.838.627-10.588 3.1-2.75 7.84-2.468 10.588.627 2.135 2.404 4.348 4.792 6.578 7.1 2.879 2.979 2.798 7.727-.181 10.605-1.454 1.407-3.334 2.107-5.21 2.107zm346.888-8.247c-1.758 0-3.523-.615-4.948-1.867-3.111-2.734-3.417-7.473-.683-10.584 2.128-2.421 4.227-4.913 6.238-7.407 2.602-3.225 7.32-3.73 10.547-1.128 3.224 2.601 3.729 7.322 1.129 10.546-2.145 2.658-4.381 5.313-6.646 7.892-1.483 1.686-3.555 2.548-5.637 2.548zm-372.119-22.702c-2.394 0-4.746-1.143-6.198-3.268-1.933-2.827-3.828-5.729-5.633-8.627-2.19-3.516-1.116-8.141 2.399-10.332 3.513-2.189 8.142-1.116 10.331 2.4 1.693 2.717 3.472 5.44 5.285 8.094 2.338 3.419 1.461 8.086-1.959 10.424-1.293.885-2.767 1.309-4.225 1.309zm395.868-9.423c-1.342 0-2.699-.36-3.926-1.115-3.527-2.172-4.626-6.792-2.454-10.319 1.687-2.738 3.338-5.551 4.907-8.359 2.021-3.615 6.588-4.909 10.206-2.888 3.616 2.021 4.908 6.59 2.888 10.206-1.673 2.992-3.432 5.988-5.228 8.906-1.416 2.301-3.875 3.569-6.393 3.569zm-415.525-25.313c-2.842 0-5.56-1.623-6.822-4.375-1.422-3.1-2.798-6.278-4.09-9.444-1.564-3.835.276-8.212 4.111-9.777 3.838-1.563 8.213.276 9.777 4.111 1.212 2.97 2.502 5.949 3.836 8.856 1.727 3.765.074 8.217-3.69 9.944-1.013.465-2.076.685-3.122.685zm433.527-10.374c-.931 0-1.876-.174-2.793-.542-3.844-1.543-5.708-5.911-4.165-9.754 1.2-2.989 2.352-6.043 3.421-9.077 1.377-3.906 5.658-5.958 9.567-4.579 3.906 1.377 5.956 5.661 4.579 9.567-1.141 3.235-2.368 6.491-3.647 9.678-1.176 2.928-3.989 4.707-6.962 4.707zm-447.027-27.194c-3.318 0-6.353-2.219-7.244-5.578-.879-3.312-1.697-6.686-2.433-10.028-.89-4.045 1.669-8.046 5.714-8.936 4.052-.888 8.047 1.669 8.937 5.714.688 3.133 1.456 6.296 2.28 9.401 1.063 4.004-1.321 8.111-5.325 9.173-.645.172-1.292.254-1.929.254zm458.715-11.05c-.521 0-1.049-.054-1.578-.167-4.05-.867-6.631-4.854-5.764-8.904.671-3.134 1.284-6.332 1.822-9.503.693-4.084 4.564-6.836 8.649-6.139 4.084.693 6.833 4.565 6.14 8.649-.574 3.381-1.228 6.79-1.943 10.132-.754 3.521-3.865 5.932-7.326 5.932zm-465.641-28.285c-3.84 0-7.112-2.934-7.461-6.832-.306-3.408-.543-6.869-.705-10.285-.197-4.138 2.997-7.651 7.135-7.849 4.125-.185 7.651 2.998 7.848 7.135.153 3.209.376 6.459.662 9.661.37 4.126-2.676 7.77-6.801 8.139-.228.021-.453.031-.678.031zm470.656-11.339c-.106 0-.213-.002-.319-.006-4.139-.173-7.354-3.668-7.18-7.807.134-3.194.201-6.451.201-9.68 0-.884-.005-1.767-.016-2.648-.048-4.142 3.27-7.539 7.411-7.588 4.178-.026 7.539 3.269 7.588 7.411.012.94.017 1.882.017 2.825 0 3.437-.072 6.904-.215 10.307-.167 4.031-3.49 7.186-7.487 7.186zm-470.867-28.601c-.196 0-.394-.008-.593-.023-4.129-.323-7.215-3.932-6.893-8.062.267-3.41.609-6.862 1.02-10.26.496-4.113 4.229-7.046 8.345-6.548 4.112.496 7.044 4.231 6.548 8.344-.385 3.191-.707 6.432-.957 9.633-.308 3.931-3.593 6.916-7.47 6.916zm468.822-14.008c-3.687 0-6.901-2.72-7.42-6.476-.437-3.164-.95-6.378-1.527-9.554-.741-4.076 1.963-7.98 6.038-8.72 4.069-.741 7.979 1.962 8.72 6.038.615 3.384 1.163 6.811 1.629 10.186.566 4.103-2.302 7.888-6.404 8.455-.348.048-.694.071-1.036.071zm-462.359-25.402c-.609 0-1.228-.075-1.845-.231-4.016-1.016-6.448-5.094-5.433-9.11.837-3.309 1.76-6.655 2.742-9.945 1.186-3.969 5.365-6.228 9.333-5.04 3.969 1.185 6.226 5.364 5.04 9.333-.922 3.087-1.788 6.226-2.572 9.33-.86 3.398-3.912 5.663-7.265 5.663zm453.552-13.55c-3.18 0-6.131-2.038-7.146-5.23-.972-3.057-2.024-6.137-3.128-9.155-1.424-3.89.576-8.197 4.466-9.62 3.894-1.423 8.198.577 9.62 4.467 1.178 3.219 2.301 6.504 3.337 9.765 1.255 3.948-.928 8.165-4.876 9.419-.755.24-1.52.354-2.273.354zm-440.494-24.212c-1.019 0-2.054-.208-3.045-.649-3.784-1.684-5.487-6.117-3.804-9.901 1.394-3.133 2.874-6.28 4.4-9.351 1.843-3.71 6.343-5.223 10.054-3.38 3.71 1.843 5.223 6.344 3.38 10.054-1.432 2.882-2.821 5.834-4.129 8.774-1.243 2.793-3.984 4.453-6.856 4.453zm425.195-12.682c-2.712 0-5.329-1.475-6.664-4.049-1.471-2.837-3.028-5.69-4.629-8.48-2.061-3.593-.819-8.177 2.774-10.238 3.591-2.06 8.176-.819 10.237 2.774 1.705 2.974 3.365 6.015 4.934 9.04 1.906 3.677.472 8.204-3.206 10.11-1.103.572-2.283.843-3.446.843zm-405.907-22.327c-1.431 0-2.877-.409-4.156-1.262-3.445-2.299-4.375-6.956-2.075-10.401 1.898-2.847 3.888-5.694 5.91-8.464 2.444-3.345 7.137-4.076 10.479-1.633 3.346 2.442 4.077 7.135 1.634 10.48-1.898 2.599-3.764 5.271-5.547 7.942-1.445 2.166-3.822 3.338-6.245 3.338zm384.595-11.423c-2.271 0-4.513-1.026-5.987-2.976-1.936-2.559-3.953-5.112-5.997-7.588-2.637-3.195-2.185-7.922 1.01-10.559 3.193-2.636 7.921-2.185 10.559 1.01 2.179 2.639 4.329 5.36 6.392 8.088 2.499 3.304 1.847 8.007-1.457 10.506-1.355 1.024-2.944 1.519-4.52 1.519zm-359.684-19.821c-1.85 0-3.702-.68-5.152-2.05-3.009-2.846-3.143-7.593-.296-10.603 2.35-2.485 4.785-4.955 7.24-7.342 2.969-2.889 7.718-2.821 10.605.148 2.888 2.97 2.821 7.718-.148 10.605-2.305 2.242-4.593 4.561-6.799 6.894-1.475 1.561-3.461 2.348-5.45 2.348zm332.985-9.882c-1.842 0-3.688-.674-5.136-2.035-2.346-2.205-4.767-4.386-7.194-6.482-3.135-2.707-3.481-7.443-.774-10.578 2.71-3.136 7.444-3.48 10.579-.774 2.586 2.233 5.164 4.557 7.663 6.905 3.018 2.836 3.165 7.583.328 10.601-1.476 1.57-3.469 2.363-5.466 2.363zm-303.195-16.728c-2.277 0-4.526-1.033-6-2.992-2.489-3.311-1.824-8.013 1.486-10.502 2.727-2.051 5.54-4.076 8.361-6.019 3.411-2.349 8.08-1.487 10.431 1.925 2.349 3.412 1.487 8.082-1.925 10.431-2.649 1.824-5.291 3.725-7.852 5.65-1.35 1.017-2.932 1.507-4.501 1.507zm271.88-8.084c-1.425 0-2.864-.405-4.14-1.251-2.675-1.774-5.429-3.519-8.186-5.183-3.546-2.141-4.685-6.751-2.543-10.297 2.141-3.546 6.751-4.684 10.297-2.543 2.938 1.774 5.874 3.633 8.725 5.525 3.451 2.29 4.394 6.945 2.103 10.396-1.444 2.174-3.828 3.353-6.256 3.353zm-238.066-13.13c-2.719 0-5.343-1.483-6.674-4.067-1.896-3.682-.448-8.205 3.233-10.102 3.039-1.565 6.151-3.085 9.25-4.518 3.762-1.739 8.217-.099 9.955 3.66 1.738 3.76.1 8.217-3.66 9.955-2.906 1.344-5.825 2.77-8.676 4.238-1.098.566-2.271.834-3.428.834zm203.01-6.058c-1.012 0-2.04-.206-3.024-.641-2.946-1.3-5.959-2.554-8.954-3.726-3.857-1.509-5.762-5.86-4.252-9.717s5.862-5.759 9.717-4.251c3.193 1.25 6.405 2.586 9.546 3.972 3.79 1.673 5.506 6.101 3.833 9.89-1.239 2.805-3.986 4.473-6.866 4.473zm-166.1-9.133c-3.188 0-6.144-2.048-7.151-5.249-1.244-3.951.95-8.163 4.9-9.407 3.263-1.027 6.595-1.999 9.904-2.888 3.995-1.077 8.114 1.296 9.188 5.297 1.074 4-1.297 8.115-5.298 9.189-3.104.834-6.229 1.745-9.289 2.709-.749.237-1.507.349-2.254.349zm128.287-3.831c-.603 0-1.213-.073-1.824-.226-3.11-.777-6.284-1.499-9.435-2.144-4.058-.831-6.673-4.795-5.842-8.853.832-4.057 4.79-6.676 8.854-5.842 3.357.688 6.742 1.457 10.06 2.286 4.019 1.004 6.462 5.076 5.458 9.094-.852 3.409-3.911 5.685-7.271 5.685zm-89.315-4.874c-3.695 0-6.913-2.731-7.423-6.495-.556-4.105 2.321-7.883 6.427-8.438 3.385-.458 6.832-.851 10.246-1.167 4.121-.382 7.776 2.652 8.159 6.776.382 4.125-2.651 7.778-6.776 8.16-3.204.296-6.439.665-9.617 1.095-.341.046-.681.069-1.016.069zm49.887-1.476c-.188 0-.378-.007-.569-.021-3.201-.241-6.454-.416-9.667-.522-4.14-.137-7.386-3.604-7.249-7.743.137-4.14 3.634-7.367 7.743-7.249 3.422.113 6.886.3 10.296.556 4.131.31 7.228 3.91 6.917 8.041-.295 3.938-3.584 6.938-7.471 6.938z" fill="#5a5a5a"/></g><g><g fill="#9c9c9c"><circle cx="20.088" cy="256" r="20.088"/><circle cx="491.908" cy="256" r="20.088"/></g><g fill="#838383"><path d="m40.181 256c0 11.098-9 20.087-20.098 20.087-9.236 0-17.022-6.243-19.357-14.739 1.995.669 4.124 1.029 6.336 1.029 11.088 0 20.087-9 20.087-20.087 0-1.851-.247-3.641-.73-5.348 7.992 2.643 13.762 10.171 13.762 19.058z"/><path d="m512 256c0 11.098-9 20.087-20.087 20.087-9.246 0-17.032-6.243-19.367-14.739 1.985.669 4.124 1.029 6.336 1.029 11.098 0 20.087-9 20.087-20.087 0-1.851-.247-3.641-.73-5.348 7.991 2.643 13.761 10.171 13.761 19.058z"/></g></g><g fill="#9c9c9c"><circle cx="20.088" cy="20.607" r="20.088"/><circle cx="491.908" cy="20.607" r="20.088"/><circle cx="20.088" cy="491.393" r="20.088"/><circle cx="491.908" cy="491.393" r="20.088"/></g><g fill="#838383"><path d="m40.181 20.61c0 11.087-9 20.087-20.098 20.087-9.236 0-17.022-6.243-19.357-14.749 1.995.668 4.124 1.029 6.336 1.029 11.088 0 20.087-8.989 20.087-20.087 0-1.851-.247-3.641-.73-5.338 7.992 2.643 13.762 10.172 13.762 19.058z"/><path d="m512 20.61c0 11.087-9 20.087-20.087 20.087-9.246 0-17.032-6.243-19.367-14.749 1.985.668 4.124 1.029 6.336 1.029 11.098 0 20.087-8.989 20.087-20.087 0-1.851-.247-3.641-.73-5.338 7.991 2.643 13.761 10.172 13.761 19.058z"/><path d="m40.181 491.39c0 11.098-9 20.087-20.098 20.087-9.236 0-17.022-6.243-19.357-14.739 1.995.668 4.124 1.029 6.336 1.029 11.088 0 20.087-8.989 20.087-20.087 0-1.851-.247-3.641-.73-5.348 7.992 2.643 13.762 10.182 13.762 19.058z"/><path d="m512 491.39c0 11.098-9 20.087-20.087 20.087-9.246 0-17.032-6.243-19.367-14.739 1.985.668 4.124 1.029 6.336 1.029 11.098 0 20.087-8.989 20.087-20.087 0-1.851-.247-3.641-.73-5.348 7.991 2.643 13.761 10.182 13.761 19.058z"/></g></g></g></svg>