<svg id="bold" enable-background="new 0 0 24 24" height="512" viewBox="0 0 24 24" width="512" xmlns="http://www.w3.org/2000/svg"><path d="m21.25 2c.414 0 .75.336.75.75v18.5c0 .414-.336.75-.75.75h-18.5c-.414 0-.75-.336-.75-.75v-18.5c0-.414.336-.75.75-.75zm0-2h-18.5c-1.517 0-2.75 1.233-2.75 2.75v18.5c0 1.517 1.233 2.75 2.75 2.75h18.5c1.517 0 2.75-1.233 2.75-2.75v-18.5c0-1.517-1.233-2.75-2.75-2.75z"/><path d="m17.792 13.268-5.25 5.5c-.141.148-.337.232-.542.232s-.401-.084-.542-.232l-5.25-5.5c-.455-.476-.117-1.268.542-1.268h2.75v-5.75c0-.689.561-1.25 1.25-1.25h2.5c.689 0 1.25.561 1.25 1.25v5.75h2.75c.659 0 .997.792.542 1.268z"/></svg>